<svg xmlns="http://www.w3.org/2000/svg" version="1.1" xmlns:xlink="http://www.w3.org/1999/xlink" xmlns:svgjs="http://svgjs.dev/svgjs" width="1000" height="1000" viewBox="0 0 1000 1000"><rect width="1000" height="1000" fill="#ffffff"></rect><g transform="matrix(0.7,0,0,0.7,149.30716556920254,22.98656426861561)"><svg viewBox="0 0 181 247" data-background-color="#ffffff" preserveAspectRatio="xMidYMid meet" height="1364" width="1000" xmlns="http://www.w3.org/2000/svg" xmlns:xlink="http://www.w3.org/1999/xlink"><g id="tight-bounds" transform="matrix(1,0,0,1,0.17914721534879163,-0.09999893590716624)"><svg viewBox="0 0 180.6417055961164 247.2" height="247.2" width="180.6417055961164"><g><svg viewBox="0 0 395.52000000000004 541.2512225643092" height="247.2" width="180.6417055961164"><g transform="matrix(1,0,0,1,0,216.230909678478)"><svg viewBox="0 0 395.52000000000004 325.0203128858311" height="325.0203128858311" width="395.52000000000004"><g id="textblocktransform"><svg viewBox="0 0 395.52000000000004 325.0203128858311" height="325.0203128858311" width="395.52000000000004" id="textblock"><g><svg viewBox="0 0 395.52000000000004 240.89283950617286" height="240.89283950617286" width="395.52000000000004"><g transform="matrix(1,0,0,1,0,0)"><svg width="395.52000000000004" viewBox="2.0999999046325684 -28.65999984741211 47.46000289916992 28.899999618530273" height="240.89283950617286" data-palette-color="#c060a1"><path d="M25.39-7.62L23.29 0.24Q22.41 0.2 21.36 0.15 20.31 0.1 19.31 0.05 18.31 0 17.58 0L17.58 0 2.25 0 2.1-2.05 5.18-2.73Q5.22-2.98 5.27-3.93 5.32-4.88 5.35-6.45 5.37-8.01 5.37-10.06L5.37-10.06 5.37-18.55Q5.37-20.65 5.37-22.22 5.37-23.78 5.32-24.73 5.27-25.68 5.18-25.88L5.18-25.88 2.1-26.61 2.25-28.66 14.55-28.66 14.7-26.51 10.64-25.88Q10.6-25.73 10.52-24.85 10.45-23.97 10.4-22.39 10.35-20.8 10.35-18.55L10.35-18.55 10.35-10.06Q10.35-7.42 10.4-5.59 10.45-3.76 10.5-3.17L10.5-3.17Q11.23-3.08 12.01-3.03 12.79-2.98 13.87-2.98L13.87-2.98 16.89-2.98Q18.02-2.98 18.82-3.05 19.63-3.13 20.31-3.22L20.31-3.22 22.95-8.2 25.39-7.62ZM39.89 0L27.83 0 27.73-2.05 30.56-2.73Q30.66-2.93 30.71-3.71 30.76-4.49 30.78-5.98 30.81-7.47 30.81-9.81L30.81-9.81 30.86-19.04Q30.86-21.29 30.81-22.75 30.76-24.22 30.73-25 30.71-25.78 30.61-25.93L30.61-25.93 27.59-26.61 27.68-28.66 38.72-28.66Q43.94-28.66 46.75-26.51 49.56-24.37 49.56-20.36L49.56-20.36Q49.56-17.68 48.14-15.63 46.73-13.57 44.26-12.43 41.79-11.28 38.67-11.28L38.67-11.28Q37.64-11.28 36.74-11.38 35.84-11.47 35.06-11.62L35.06-11.62 35.06-14.5Q35.94-14.21 36.79-14.06 37.64-13.92 38.57-13.92L38.57-13.92Q41.26-13.92 42.77-15.36 44.28-16.8 44.28-19.73L44.28-19.73Q44.28-23.14 42.53-24.73 40.77-26.32 38.03-26.32L38.03-26.32 35.84-26.32Q35.84-25.98 35.81-24.98 35.79-23.97 35.76-22.46 35.74-20.95 35.74-19.04L35.74-19.04 35.79-9.81Q35.79-7.47 35.84-5.98 35.89-4.49 35.94-3.76 35.98-3.03 36.03-2.83L36.03-2.83 40.04-2.15 39.89 0Z" opacity="1" transform="matrix(1,0,0,1,0,0)" fill="#000000" class="undefined-text-0" data-fill-palette-color="primary" id="text-0"></path></svg></g></svg></g><g transform="matrix(1,0,0,1,0,297.76185748543213)"><svg viewBox="0 0 395.52000000000004 27.25845540039898" height="27.25845540039898" width="395.52000000000004"><g transform="matrix(1,0,0,1,0,0)"><svg width="395.52000000000004" viewBox="3.4200000762939453 -35.060001373291016 513.9800415039062 35.43000030517578" height="27.25845540039898" data-palette-color="#c060a1"><path d="M14.23 0L3.42-34.69 7.81-34.69 16.53-5.54 25.32-34.69 29.49-34.69 38.53-5.54 47-34.69 51.39-34.69 40.7 0 36.28 0 27.17-28.98 18.65 0 14.23 0ZM80.27 0L59.93 0 59.93-34.69 80.27-34.69 80.27-31.03 64.08-31.03 64.08-19.7 78.93-19.7 78.93-16.04 64.08-16.04 64.08-3.66 80.27-3.66 80.27 0ZM102.09-31.52L95.41-31.52 95.41-19.87Q95.87-19.9 97.02-19.91 98.16-19.92 98.8-19.93 99.43-19.95 100.58-20.03 101.73-20.12 102.42-20.23 103.12-20.34 104.11-20.57 105.1-20.8 105.72-21.11 106.34-21.41 107.04-21.89 107.73-22.36 108.12-22.95 108.52-23.54 108.77-24.35 109.03-25.17 109.03-26.15L109.03-26.15Q109.03-26.88 108.88-27.54 108.74-28.2 108.27-28.96 107.81-29.71 107.08-30.25 106.34-30.79 105.06-31.15 103.78-31.52 102.09-31.52L102.09-31.52ZM95.41-16.65L95.41-16.65 95.41-3.66 101.87-3.66Q102.75-3.66 103.35-3.67 103.95-3.69 105.07-3.82 106.2-3.96 106.99-4.19 107.78-4.42 108.76-4.9 109.74-5.37 110.33-6.03 110.93-6.69 111.35-7.73 111.76-8.76 111.76-10.08L111.76-10.08Q111.76-13.33 109.25-15.16 106.73-16.99 102.49-16.99L102.49-16.99Q102.02-16.99 95.41-16.65ZM91.25 0L91.25-34.69 103.49-34.69Q105.27-34.69 106.75-34.31 108.22-33.94 109.19-33.35 110.15-32.76 110.9-31.96 111.64-31.15 112.03-30.4 112.42-29.64 112.67-28.78 112.91-27.93 112.97-27.38 113.03-26.83 113.03-26.34L113.03-26.34Q113.03-24.22 111.59-22.11 110.15-20 108.54-19.38L108.54-19.38Q111.76-18.8 113.83-16.27 115.89-13.75 115.89-10.52L115.89-10.52Q115.89-9.77 115.75-8.94 115.62-8.11 115.23-7.06 114.84-6.01 114.23-5.05 113.62-4.1 112.57-3.16 111.52-2.22 110.16-1.54 108.81-0.85 106.84-0.43 104.88 0 102.53 0L102.53 0 91.25 0ZM150.58-31.03L143.84-31.03 143.84-3.66 148.89-3.66Q149.99-3.66 150.71-3.69 151.43-3.71 152.66-3.83 153.9-3.96 154.79-4.2 155.68-4.44 156.81-4.91 157.95-5.37 158.83-6.03 159.71-6.69 160.59-7.71 161.46-8.74 162.12-10.03L162.12-10.03Q163.74-13.13 163.74-17.58L163.74-17.58Q163.74-20.65 162.84-23.13 161.95-25.61 160.48-27.16 159-28.71 157.33-29.61 155.65-30.52 153.82-30.83L153.82-30.83Q152.75-31.03 150.58-31.03L150.58-31.03ZM139.69-34.69L150.43-34.69Q153.8-34.69 156.56-34.02 159.32-33.35 161.18-32.13 163.05-30.91 164.39-29.37 165.74-27.83 166.48-25.94 167.23-24.05 167.57-22.22 167.91-20.39 167.91-18.41L167.91-18.41Q167.91-16.14 167.57-14.04 167.23-11.94 166.38-9.77 165.54-7.59 164.24-5.87 162.93-4.15 160.85-2.77 158.78-1.39 156.14-0.73L156.14-0.73Q154.78-0.39 153.09-0.22 151.41-0.05 150.31-0.02 149.21 0 147.21 0L147.21 0 139.69 0 139.69-34.69ZM199.23 0L178.89 0 178.89-34.69 199.23-34.69 199.23-31.03 183.04-31.03 183.04-19.7 197.89-19.7 197.89-16.04 183.04-16.04 183.04-3.66 199.23-3.66 199.23 0ZM218.64 0L206.55-34.69 211.48-34.69 221.4-4.39 231.31-34.69 235.87-34.69 223.79 0 218.64 0ZM264.75 0L244.42 0 244.42-34.69 264.75-34.69 264.75-31.03 248.57-31.03 248.57-19.7 263.41-19.7 263.41-16.04 248.57-16.04 248.57-3.66 264.75-3.66 264.75 0ZM275.74 0L275.74-34.69 279.89-34.69 279.89-3.64 295.46-3.64 295.46 0 275.74 0ZM317.9-35.06L317.9-35.06Q321.34-35.06 324.33-33.85 327.32-32.64 329.51-30.44 331.69-28.25 332.94-24.96 334.18-21.68 334.18-17.75L334.18-17.75Q334.18-12.43 332.07-8.29 329.96-4.15 326.21-1.89 322.46 0.37 317.73 0.37L317.73 0.37Q314.6 0.37 311.75-0.74 308.89-1.86 306.59-3.98 304.3-6.1 302.93-9.53 301.56-12.96 301.56-17.26L301.56-17.26Q301.56-21.29 302.81-24.63 304.05-27.98 306.23-30.26 308.4-32.54 311.4-33.8 314.41-35.06 317.9-35.06ZM317.68-31.42L317.68-31.42Q315.46-31.42 313.41-30.59 311.35-29.76 309.63-28.16 307.91-26.56 306.87-23.86 305.84-21.17 305.84-17.77L305.84-17.77Q305.84-14.53 306.79-11.78 307.74-9.03 309.38-7.18 311.01-5.32 313.25-4.3 315.48-3.27 318.04-3.27L318.04-3.27Q319.78-3.27 321.45-3.78 323.12-4.3 324.66-5.41 326.2-6.52 327.36-8.13 328.52-9.74 329.21-12.11 329.91-14.48 329.91-17.31L329.91-17.31Q329.91-20.19 329.18-22.58 328.44-24.98 327.24-26.59 326.03-28.2 324.43-29.31 322.83-30.42 321.13-30.92 319.44-31.42 317.68-31.42ZM344.56 0L344.56-34.69 356.01-34.69Q356.81-34.69 357.34-34.68 357.86-34.67 358.86-34.58 359.86-34.5 360.57-34.34 361.28-34.18 362.24-33.85 363.21-33.52 363.89-33.08 364.57-32.64 365.32-31.92 366.06-31.2 366.52-30.32 366.97-29.44 367.26-28.2 367.55-26.95 367.55-25.46L367.55-25.46Q367.55-23.32 367.06-21.61 366.58-19.9 365.81-18.75 365.04-17.6 363.82-16.77 362.6-15.94 361.4-15.49 360.2-15.04 358.58-14.78 356.96-14.53 355.68-14.45 354.39-14.38 352.71-14.38L352.71-14.38Q351.05-14.38 348.71-14.55L348.71-14.55 348.71 0 344.56 0ZM348.71-31.03L348.71-18.21Q351.05-18.02 353.15-18.02L353.15-18.02Q354.35-18.02 355.15-18.04 355.96-18.07 357.13-18.21 358.3-18.36 359.08-18.62 359.86-18.87 360.74-19.38 361.62-19.9 362.15-20.59 362.67-21.29 363.01-22.35 363.35-23.41 363.35-24.78L363.35-24.78Q363.35-26.2 362.99-27.28 362.62-28.37 361.93-29.03 361.23-29.69 360.46-30.11 359.69-30.54 358.61-30.73 357.52-30.91 356.7-30.97 355.88-31.03 354.76-31.03L354.76-31.03 348.71-31.03ZM377.24 0L377.24-34.69 383.1-34.69 394.24-13.65 405.54-34.69 411.03-34.69 411.03 0 406.88 0 406.88-28.74 396.21-9.94 392.06-9.94 381.39-28.74 381.39 0 377.24 0ZM443.57 0L423.24 0 423.24-34.69 443.57-34.69 443.57-31.03 427.39-31.03 427.39-19.7 442.23-19.7 442.23-16.04 427.39-16.04 427.39-3.66 443.57-3.66 443.57 0ZM454.56 0L454.56-34.69 459.81-34.69 478.7-5.66 478.7-34.69 482.85-34.69 482.85 0 477.6 0 458.71-29.08 458.71 0 454.56 0ZM490.05-31.03L490.05-34.69 517.4-34.69 517.4-31.03 505.8-31.03 505.8 0 501.65 0 501.65-31.03 490.05-31.03Z" opacity="1" transform="matrix(1,0,0,1,0,0)" fill="#000000" class="undefined-text-1" data-fill-palette-color="secondary" id="text-1"></path></svg></g></svg></g></svg></g></svg></g><g transform="matrix(1,0,0,1,75.54432000000001,0)"><svg viewBox="0 0 244.43136 159.36189169921875" height="159.36189169921875" width="244.43136"><g><svg xmlns:x="http://ns.adobe.com/Extensibility/1.0/" xmlns:i="http://ns.adobe.com/AdobeIllustrator/10.0/" xmlns:graph="http://ns.adobe.com/Graphs/1.0/" xmlns="http://www.w3.org/2000/svg" xmlns:xlink="http://www.w3.org/1999/xlink" xmlns:a="http://ns.adobe.com/AdobeSVGViewerExtensions/3.0/" version="1.1" x="0" y="0" viewBox="0 17.40189552307129 100 65.19699096679688" enable-background="new 0 0 100 100" xml:space="preserve" height="159.36189169921875" width="244.43136" class="icon-icon-0" data-fill-palette-color="accent" id="icon-0"><path d="M70.79 38.18l5.458-9.459-14.893-8.599c-9.7-5.599-22.125-2.279-27.729 7.43l3.25 1.877c2.583-4.484 8.317-6.02 12.804-3.432l4.867 2.808-11.725 20.31L41.2 48.181 26.199 74.158c-1.552 2.691-0.634 6.133 2.057 7.684 2.697 1.558 6.136 0.633 7.688-2.061l14.995-25.976-1.617-0.937 11.724-20.31L70.79 38.18z" fill="#000000" data-fill-palette-color="accent"></path><path d="M20.633 63.435c-0.473 0-0.95-0.12-1.384-0.369L1.389 52.754C0.527 52.257 0 51.34 0 50.347s0.527-1.91 1.389-2.406l17.86-10.311c1.324-0.767 3.023-0.312 3.792 1.017 0.771 1.329 0.315 3.027-1.015 3.794L8.333 50.347l13.693 7.906c1.33 0.765 1.785 2.463 1.015 3.792C22.526 62.938 21.592 63.435 20.633 63.435z" fill="#000000" data-fill-palette-color="accent"></path><path d="M79.361 66.212c-0.959 0-1.893-0.497-2.408-1.389-0.765-1.329-0.31-3.028 1.02-3.792l13.694-7.906L77.973 45.22c-1.329-0.768-1.784-2.466-1.02-3.794 0.771-1.329 2.468-1.784 3.797-1.017l17.861 10.311c0.857 0.497 1.389 1.414 1.389 2.406s-0.531 1.91-1.389 2.405L80.75 65.843C80.312 66.093 79.834 66.212 79.361 66.212z" fill="#000000" data-fill-palette-color="accent"></path></svg></g></svg></g><g></g></svg></g><defs></defs></svg><rect width="180.6417055961164" height="247.2" fill="none" stroke="none" visibility="hidden"></rect></g></svg></g></svg>